<svg width="139" height="36" viewBox="0 0 139 36" fill="none" xmlns="http://www.w3.org/2000/svg">
<g clip-path="url(#clip0_37_37)">
<path d="M16.9844 27H14.25V16.4844H4.92188V27H2.20312V4.25H4.92188V14.0312H14.25V4.25H16.9844V27ZM42.7562 27V10.0938H45.35L45.5531 12.5938C45.8031 12.2396 46.074 11.9167 46.3656 11.625C46.6677 11.3229 46.9854 11.0625 47.3187 10.8438C47.8187 10.5104 48.3604 10.2552 48.9437 10.0781C49.5375 9.89062 50.1625 9.79167 50.8187 9.78125C51.7042 9.78125 52.5062 9.90625 53.225 10.1562C53.9542 10.4062 54.574 10.7969 55.0844 11.3281C55.5948 11.8594 55.9854 12.5365 56.2562 13.3594C56.5375 14.1719 56.6781 15.1406 56.6781 16.2656V27H53.7875V16.3281C53.7875 15.5781 53.7042 14.9427 53.5375 14.4219C53.3708 13.901 53.126 13.4792 52.8031 13.1562C52.4698 12.8333 52.0635 12.599 51.5844 12.4531C51.1156 12.3073 50.574 12.2344 49.9594 12.2344C49.4281 12.2344 48.9333 12.3125 48.475 12.4688C48.0167 12.6146 47.5948 12.8177 47.2094 13.0781C46.8969 13.3073 46.6052 13.5729 46.3344 13.875C46.074 14.1771 45.8448 14.5104 45.6469 14.875V27H42.7562ZM70.2438 27.3125C69.0563 27.3125 67.9625 27.1094 66.9625 26.7031C65.9729 26.2969 65.124 25.7292 64.4156 25C63.7073 24.2708 63.1552 23.4062 62.7594 22.4062C62.3635 21.4062 62.1656 20.3177 62.1656 19.1406V18.4844C62.1656 17.1198 62.3844 15.901 62.8219 14.8281C63.2594 13.7448 63.8427 12.8281 64.5719 12.0781C65.2906 11.3385 66.1083 10.7708 67.025 10.375C67.9521 9.97917 68.9 9.78125 69.8688 9.78125C71.0875 9.78125 72.15 9.99479 73.0563 10.4219C73.9729 10.8385 74.7333 11.4167 75.3375 12.1562C75.9417 12.9062 76.3896 13.7865 76.6813 14.7969C76.9833 15.8073 77.1344 16.901 77.1344 18.0781V19.375H65.0563V19.4844C65.1292 20.3073 65.2906 21.0312 65.5406 21.6562C65.801 22.2812 66.1552 22.8333 66.6031 23.3125C67.0615 23.8229 67.6135 24.224 68.2594 24.5156C68.9052 24.8073 69.6188 24.9531 70.4 24.9531C71.4313 24.9531 72.3479 24.7448 73.15 24.3281C73.9521 23.9115 74.6188 23.3594 75.15 22.6719L76.9156 24.0469C76.3531 24.901 75.5094 25.6615 74.3844 26.3281C73.2698 26.9844 71.8896 27.3125 70.2438 27.3125ZM69.8688 12.1562C69.2854 12.1562 68.7333 12.2656 68.2125 12.4844C67.6917 12.6927 67.2229 13 66.8063 13.4062C66.3896 13.8229 66.0354 14.3333 65.7438 14.9375C65.4625 15.5312 65.2646 16.2188 65.15 17H74.2438V16.8594C74.2438 16.3385 74.1448 15.7812 73.9469 15.1875C73.749 14.5833 73.4729 14.0625 73.1188 13.625C72.7646 13.1875 72.3167 12.8333 71.775 12.5625C71.2438 12.2917 70.6083 12.1562 69.8688 12.1562ZM84.1531 33.8281C83.8823 33.8281 83.5646 33.7969 83.2 33.7344C82.8354 33.6719 82.5594 33.6198 82.3719 33.5781L82.8406 31.2188C83.101 31.2396 83.3562 31.2552 83.6062 31.2656C83.8667 31.2865 84.0698 31.2969 84.2156 31.2969C84.6115 31.2969 84.9708 31.1875 85.2937 30.9688C85.6271 30.75 85.924 30.4896 86.1844 30.1875C86.4344 29.8854 86.6479 29.5729 86.825 29.25C87.0125 28.9271 87.1583 28.6615 87.2625 28.4531L88.4187 26.2031L81.1375 10.0938H84.3719L89.0125 21L89.7625 23.0469L90.5594 21.0625L94.9187 10.0938H98.1531L89.575 29.6094C89.3771 30.0469 89.1219 30.5104 88.8094 31C88.5073 31.4896 88.1375 31.9427 87.7 32.3594C87.2625 32.776 86.7521 33.125 86.1687 33.4062C85.5854 33.6875 84.9135 33.8281 84.1531 33.8281ZM105.969 17.875V27H103.078V4.25H110.453C111.474 4.27083 112.438 4.43229 113.344 4.73438C114.26 5.03646 115.062 5.47396 115.75 6.04688C116.438 6.61979 116.979 7.32812 117.375 8.17188C117.781 9.01562 117.984 9.98438 117.984 11.0781C117.984 12.1719 117.781 13.1406 117.375 13.9844C116.979 14.8177 116.438 15.5208 115.75 16.0938C115.062 16.6667 114.26 17.1042 113.344 17.4062C112.438 17.7083 111.474 17.8646 110.453 17.875H105.969ZM105.969 15.5H110.453C111.12 15.4896 111.734 15.3854 112.297 15.1875C112.859 14.9792 113.349 14.6875 113.766 14.3125C114.182 13.9375 114.505 13.4844 114.734 12.9531C114.974 12.4115 115.094 11.7969 115.094 11.1094C115.094 10.4219 114.974 9.80208 114.734 9.25C114.505 8.69792 114.188 8.22917 113.781 7.84375C113.365 7.45833 112.87 7.16146 112.297 6.95312C111.734 6.74479 111.12 6.63542 110.453 6.625H105.969V15.5ZM137.566 20.1562C137.43 21.2083 137.159 22.1771 136.753 23.0625C136.347 23.9375 135.821 24.6875 135.175 25.3125C134.519 25.9479 133.743 26.4427 132.847 26.7969C131.961 27.1406 130.972 27.3125 129.878 27.3125C128.941 27.3125 128.086 27.1823 127.316 26.9219C126.555 26.651 125.878 26.2812 125.284 25.8125C124.68 25.3438 124.159 24.7917 123.722 24.1562C123.295 23.5208 122.941 22.8281 122.659 22.0781C122.368 21.3281 122.149 20.5417 122.003 19.7188C121.868 18.8958 121.795 18.0625 121.784 17.2188V14.0469C121.795 13.2031 121.868 12.3698 122.003 11.5469C122.149 10.724 122.368 9.9375 122.659 9.1875C122.941 8.4375 123.295 7.74479 123.722 7.10938C124.159 6.46354 124.68 5.90625 125.284 5.4375C125.878 4.96875 126.555 4.60417 127.316 4.34375C128.076 4.07292 128.93 3.9375 129.878 3.9375C131.014 3.9375 132.029 4.11458 132.925 4.46875C133.821 4.8125 134.592 5.30208 135.238 5.9375C135.883 6.58333 136.399 7.35417 136.784 8.25C137.18 9.14583 137.441 10.1354 137.566 11.2188H134.675C134.581 10.5312 134.42 9.89062 134.191 9.29688C133.961 8.70312 133.654 8.18229 133.269 7.73438C132.883 7.28646 132.409 6.9375 131.847 6.6875C131.295 6.42708 130.639 6.29688 129.878 6.29688C129.191 6.29688 128.581 6.41146 128.05 6.64062C127.529 6.85938 127.081 7.16146 126.706 7.54688C126.321 7.93229 125.998 8.38021 125.738 8.89062C125.488 9.40104 125.284 9.94271 125.128 10.5156C124.972 11.0885 124.857 11.6771 124.784 12.2812C124.722 12.875 124.691 13.4531 124.691 14.0156V17.2188C124.691 17.7812 124.722 18.3646 124.784 18.9688C124.857 19.5625 124.972 20.1458 125.128 20.7188C125.284 21.3021 125.488 21.849 125.738 22.3594C125.988 22.8698 126.305 23.3177 126.691 23.7031C127.076 24.099 127.529 24.4115 128.05 24.6406C128.571 24.8594 129.18 24.9688 129.878 24.9688C130.639 24.9688 131.295 24.849 131.847 24.6094C132.409 24.3698 132.883 24.0312 133.269 23.5938C133.654 23.1667 133.961 22.6615 134.191 22.0781C134.42 21.4844 134.581 20.8438 134.675 20.1562H137.566Z" fill="white"/>
<path d="M25.7842 10L29.9274 12.3921V17.1763L25.7842 19.5684L21.641 17.1763V12.3921L25.7842 10Z" fill="white"/>
<path d="M34.4555 10L38.5987 12.3921V17.1763L34.4555 19.5684L30.3122 17.1763V12.3921L34.4555 10Z" fill="white"/>
<path d="M30.12 17.4753L34.3927 19.8675V24.6517L30.12 27.0438L25.8473 24.6517V19.8675L30.12 17.4753Z" fill="white"/>
</g>
<defs>
<clipPath id="clip0_37_37">
<rect width="139" height="36" fill="white"/>
</clipPath>
</defs>
</svg>
